<svg width="56" height="40" viewBox="0 0 56 40" fill="none" xmlns="http://www.w3.org/2000/svg">
<path d="M50.5254 0C53.4111 0 55.7522 2.22667 55.7522 4.97349C55.7522 6.53807 54.9791 8.00939 53.6615 8.95228L29.9668 25.8622C28.7255 26.7429 27.0268 26.7429 25.7854 25.8622L2.09071 8.95228C0.774542 8.00939 0 6.53807 0 4.97349C0 2.22667 2.34007 0 5.22677 0H50.5254ZM23.6947 28.5147C26.1774 30.2865 29.5748 30.2865 32.0575 28.5147L55.7522 11.6048V33.1566C55.7522 36.8142 52.627 39.7879 48.7832 39.7879H6.96903C3.11973 39.7879 0 36.8142 0 33.1566V11.6048L23.6947 28.5147Z" fill="white"/>
</svg>
