<svg width="50" height="48" viewBox="0 0 50 48" fill="none" xmlns="http://www.w3.org/2000/svg">
<path d="M24.9933 15.8557C20.4028 15.8557 16.6566 19.4204 16.6566 23.7885C16.6566 28.1567 20.4028 31.7214 24.9933 31.7214C29.5838 31.7214 33.33 28.1567 33.33 23.7885C33.33 19.4204 29.5838 15.8557 24.9933 15.8557ZM49.9972 23.7885C49.9972 20.5035 50.0285 17.2482 49.8346 13.9691C49.6407 10.1604 48.7276 6.78014 45.8007 3.995C42.8675 1.2039 39.3214 0.340986 35.3188 0.1565C31.8665 -0.0279857 28.4455 0.00177014 24.9995 0.00177014C21.5473 0.00177014 18.1263 -0.0279857 14.6803 0.1565C10.6776 0.340986 7.12529 1.20985 4.19837 3.995C1.26519 6.78609 0.358344 10.1604 0.164467 13.9691C-0.0294104 17.2542 0.00186025 20.5095 0.00186025 23.7885C0.00186025 27.0676 -0.0294104 30.3289 0.164467 33.608C0.358344 37.4167 1.27144 40.797 4.19837 43.5821C7.13154 46.3732 10.6776 47.2361 14.6803 47.4206C18.1325 47.6051 21.5535 47.5753 24.9995 47.5753C28.4518 47.5753 31.8728 47.6051 35.3188 47.4206C39.3214 47.2361 42.8738 46.3672 45.8007 43.5821C48.7339 40.791 49.6407 37.4167 49.8346 33.608C50.0347 30.3289 49.9972 27.0736 49.9972 23.7885ZM24.9933 35.9944C17.8949 35.9944 12.1661 30.5431 12.1661 23.7885C12.1661 17.034 17.8949 11.5827 24.9933 11.5827C32.0917 11.5827 37.8205 17.034 37.8205 23.7885C37.8205 30.5431 32.0917 35.9944 24.9933 35.9944ZM38.3458 13.9334C36.6885 13.9334 35.3501 12.6599 35.3501 11.0828C35.3501 9.50577 36.6885 8.23222 38.3458 8.23222C40.0031 8.23222 41.3415 9.50577 41.3415 11.0828C41.342 11.4573 41.2649 11.8282 41.1145 12.1743C40.9641 12.5203 40.7435 12.8348 40.4652 13.0996C40.1869 13.3644 39.8565 13.5743 39.4928 13.7174C39.1291 13.8605 38.7393 13.9339 38.3458 13.9334Z" fill="white"/>
</svg>
