<svg width="50" height="48" viewBox="0 0 50 48" fill="none" xmlns="http://www.w3.org/2000/svg">
<path d="M48 0H2C0.89375 0 0 0.850441 0 1.90308V45.674C0 46.7267 0.89375 47.5771 2 47.5771H48C49.1063 47.5771 50 46.7267 50 45.674V1.90308C50 0.850441 49.1063 0 48 0ZM38.4562 17.2289C38.475 17.5084 38.475 17.7998 38.475 18.0852C38.475 26.8156 31.4875 36.8722 18.7188 36.8722C14.7812 36.8722 11.1312 35.7839 8.05625 33.9106C8.61875 33.97 9.15625 33.9938 9.73125 33.9938C12.9813 33.9938 15.9688 32.9471 18.35 31.1749C15.3 31.1154 12.7375 29.2123 11.8625 26.5956C12.9312 26.7443 13.8937 26.7443 14.9937 26.4767C13.4233 26.1731 12.0117 25.3615 10.9989 24.1798C9.98598 22.9981 9.43429 21.5192 9.4375 19.9943V19.911C10.3562 20.4046 11.4375 20.7079 12.5688 20.7496C11.6178 20.1465 10.8379 19.3294 10.2982 18.3709C9.75853 17.4123 9.47577 16.3419 9.475 15.2544C9.475 14.0233 9.8125 12.8993 10.4188 11.924C12.1619 13.9659 14.3371 15.6359 16.8029 16.8254C19.2687 18.015 21.97 18.6975 24.7313 18.8286C23.75 14.3385 27.275 10.7048 31.5125 10.7048C33.5125 10.7048 35.3125 11.5018 36.5812 12.7863C38.15 12.5068 39.65 11.9478 40.9875 11.1985C40.4688 12.7269 39.3812 14.0174 37.9375 14.8322C39.3375 14.6894 40.6875 14.3207 41.9375 13.8033C40.9938 15.1236 39.8125 16.2952 38.4562 17.2289Z" fill="white"/>
</svg>
