<svg width="50" height="48" viewBox="0 0 50 48" fill="none" xmlns="http://www.w3.org/2000/svg">
<path fill-rule="evenodd" clip-rule="evenodd" d="M6.18317e-07 3.97485C6.18317e-07 2.92066 0.440105 1.90964 1.2235 1.16421C2.00689 0.418783 3.06939 5.29903e-06 4.17727 5.29903e-06H45.8182C46.3672 -0.000847956 46.911 0.101351 47.4185 0.30075C47.926 0.50015 48.3871 0.792834 48.7756 1.16205C49.164 1.53126 49.4721 1.96975 49.6822 2.45241C49.8923 2.93507 50.0003 3.45243 50 3.97485V43.5979C50.0006 44.1204 49.8929 44.638 49.6831 45.1209C49.4733 45.6037 49.1655 46.0425 48.7773 46.4121C48.3891 46.7817 47.9281 47.0748 47.4208 47.2747C46.9134 47.4746 46.3696 47.5774 45.8204 47.5771H4.17727C3.62851 47.5771 3.08513 47.4742 2.57817 47.2743C2.07122 47.0744 1.61062 46.7814 1.22269 46.4121C0.834766 46.0428 0.527118 45.6044 0.317324 45.1219C0.10753 44.6394 -0.000297945 44.1222 6.18317e-07 43.6001V3.97485ZM19.7909 18.1399H26.5614V21.3751C27.5386 19.5153 30.0386 17.8414 33.7955 17.8414C40.9977 17.8414 42.7045 21.5459 42.7045 28.343V40.9336H35.4159V29.8914C35.4159 26.0203 34.4386 23.8361 31.9568 23.8361C28.5136 23.8361 27.0818 26.1912 27.0818 29.8914V40.9336H19.7909V18.1399ZM7.29091 40.6373H14.5818V17.8414H7.29091V40.6352V40.6373ZM15.625 10.4064C15.6387 11.0004 15.5277 11.5911 15.2983 12.1437C15.0689 12.6963 14.7258 13.1997 14.2892 13.6244C13.8525 14.0491 13.3311 14.3866 12.7556 14.617C12.18 14.8474 11.5619 14.9661 10.9375 14.9661C10.3131 14.9661 9.69497 14.8474 9.11942 14.617C8.54387 14.3866 8.02247 14.0491 7.58584 13.6244C7.1492 13.1997 6.80612 12.6963 6.57673 12.1437C6.34734 11.5911 6.23625 11.0004 6.25 10.4064C6.27698 9.24046 6.78269 8.13091 7.65883 7.31538C8.53497 6.49986 9.71187 6.0432 10.9375 6.0432C12.1631 6.0432 13.34 6.49986 14.2162 7.31538C15.0923 8.13091 15.598 9.24046 15.625 10.4064Z" fill="white"/>
</svg>
